<?xml version="1.0" encoding="iso-8859-1"?>
<!-- Generator: Adobe Illustrator 19.0.0, SVG Export Plug-In . SVG Version: 6.00 Build 0)  -->
<svg version="1.1" id="Layer_1" xmlns="http://www.w3.org/2000/svg" xmlns:xlink="http://www.w3.org/1999/xlink" x="0px" y="0px"
	 viewBox="0 0 512 512" style="enable-background:new 0 0 512 512;" xml:space="preserve">
<g>
	<g>
		<path d="M474.462,274.702h-0.001c-14.627-9.707-34.173-18.034-58.096-24.75c-43.463-12.201-100.414-18.92-160.364-18.92
			s-116.902,6.719-160.365,18.92c-23.923,6.716-43.469,15.043-58.097,24.75C6.512,295.295,0,319.894,0,336.904
			s6.512,41.61,37.539,62.202c14.629,9.708,34.175,18.036,58.097,24.751C139.1,436.058,196.052,442.778,256,442.778
			s116.9-6.72,160.364-18.921c23.922-6.715,43.469-15.042,58.098-24.751C505.488,378.515,512,353.915,512,336.904
			C512,319.895,505.488,295.295,474.462,274.702z M313.284,417.098c0,5.217-4.229,9.447-9.447,9.447h-95.676
			c-5.216-0.001-9.446-4.23-9.446-9.447v-33.779c0-5.217,4.229-9.447,9.446-9.447h95.676c5.217,0,9.447,4.23,9.447,9.447V417.098z
			 M443.739,337.346c-0.027,0.02-0.151,0.088-0.394,0.154c-5.542,1.505-11.451,2.967-17.564,4.347
			C378.366,352.546,318.07,358.439,256,358.439c-62.071,0-122.367-5.893-169.783-16.592c-6.094-1.375-12.003-2.838-17.563-4.347
			c0.001-0.001,0-0.001,0-0.001c-0.222-0.06-0.345-0.122-0.36-0.122c-0.001,0-0.002,0-0.001,0.002
			c-0.129-0.191-0.129-0.757-0.032-0.915c0.027-0.02,0.151-0.088,0.394-0.154c5.56-1.509,11.469-2.971,17.564-4.347
			C133.634,321.264,193.93,315.371,256,315.371s122.366,5.893,169.782,16.592c6.094,1.375,12.003,2.838,17.564,4.348
			c0.242,0.065,0.365,0.138,0.361,0.12C443.836,336.622,443.836,337.188,443.739,337.346z"/>
	</g>
</g>
<g>
	<g>
		<path d="M285.846,168.939c-16.457-16.457-43.235-16.457-59.691,0c-5.534,5.533-5.534,14.505,0,20.039s14.506,5.534,20.039,0
			c5.408-5.406,14.206-5.406,19.613,0c2.767,2.768,6.393,4.15,10.019,4.15c3.626,0,7.253-1.384,10.02-4.15
			C291.379,183.444,291.379,174.472,285.846,168.939z"/>
	</g>
</g>
<g>
	<g>
		<path d="M307.882,133.819c-13.858-13.858-32.283-21.49-51.882-21.49s-38.024,7.632-51.882,21.49
			c-5.534,5.533-5.534,14.506,0,20.039c5.533,5.533,14.506,5.533,20.039,0c17.559-17.557,46.127-17.557,63.686,0
			c2.767,2.767,6.393,4.15,10.019,4.15c3.626,0,7.253-1.383,10.02-4.15C313.416,148.325,313.416,139.352,307.882,133.819z"/>
	</g>
</g>
<g>
	<g>
		<path d="M332.474,100.9C312.048,80.472,284.888,69.222,256,69.222s-56.048,11.25-76.475,31.678
			c-5.534,5.533-5.534,14.506,0,20.039c5.533,5.533,14.505,5.533,20.039,0c15.075-15.075,35.118-23.377,56.436-23.377
			s41.362,8.303,56.436,23.377c2.767,2.768,6.393,4.15,10.019,4.15c3.626,0,7.253-1.384,10.019-4.15
			C338.008,115.406,338.008,106.433,332.474,100.9z"/>
	</g>
</g>
<g>
</g>
<g>
</g>
<g>
</g>
<g>
</g>
<g>
</g>
<g>
</g>
<g>
</g>
<g>
</g>
<g>
</g>
<g>
</g>
<g>
</g>
<g>
</g>
<g>
</g>
<g>
</g>
<g>
</g>
</svg>
